<mxfile host="65bd71144e">
    <diagram id="_XBckznHSQIo3Inj0nVk" name="Page-1">
        <mxGraphModel dx="486" dy="414" grid="1" gridSize="10" guides="1" tooltips="1" connect="1" arrows="1" fold="1" page="1" pageScale="1" pageWidth="8500" pageHeight="2000" math="0" shadow="0">
            <root>
                <mxCell id="0"/>
                <mxCell id="1" parent="0"/>
                <mxCell id="2" value="Dice Rolled:&lt;br&gt;&amp;nbsp; 1, 1, 2, 3, 6, 6" style="rounded=0;whiteSpace=wrap;html=1;fillColor=#e3c800;fontColor=#000000;strokeColor=#B09500;align=left;labelPosition=center;verticalLabelPosition=middle;verticalAlign=top;" vertex="1" parent="1">
                    <mxGeometry x="560" y="720" width="120" height="60" as="geometry"/>
                </mxCell>
                <mxCell id="3" value="Dice Rolled:&lt;br&gt;&amp;nbsp; 2, 2, 2, 3, 6" style="rounded=0;whiteSpace=wrap;html=1;fillColor=#e3c800;fontColor=#000000;strokeColor=#B09500;align=left;labelPosition=center;verticalLabelPosition=middle;verticalAlign=top;" vertex="1" parent="1">
                    <mxGeometry x="840" y="720" width="120" height="60" as="geometry"/>
                </mxCell>
                <mxCell id="4" value="Picked Dice:&lt;br&gt;&amp;nbsp;1&amp;nbsp;" style="rounded=0;whiteSpace=wrap;html=1;fillColor=#e3c800;fontColor=#000000;strokeColor=#B09500;align=left;labelPosition=center;verticalLabelPosition=middle;verticalAlign=top;" vertex="1" parent="1">
                    <mxGeometry x="700" y="720" width="120" height="60" as="geometry"/>
                </mxCell>
                <mxCell id="5" value="Picked Dice:&lt;br&gt;&amp;nbsp;2, 2, 2" style="rounded=0;whiteSpace=wrap;html=1;fillColor=#e3c800;fontColor=#000000;strokeColor=#B09500;align=left;labelPosition=center;verticalLabelPosition=middle;verticalAlign=top;" vertex="1" parent="1">
                    <mxGeometry x="980" y="720" width="120" height="60" as="geometry"/>
                </mxCell>
                <mxCell id="6" value="Score&lt;br&gt;player 1: 0&lt;br&gt;player 2: 0" style="rounded=0;whiteSpace=wrap;html=1;fillColor=#6d8764;fontColor=#ffffff;strokeColor=#3A5431;align=left;labelPosition=center;verticalLabelPosition=middle;verticalAlign=top;" vertex="1" parent="1">
                    <mxGeometry x="420" y="860" width="120" height="60" as="geometry"/>
                </mxCell>
                <mxCell id="7" value="Score&lt;br&gt;player 1: 0&lt;br&gt;player 2: 0" style="rounded=0;whiteSpace=wrap;html=1;fillColor=#6d8764;fontColor=#ffffff;strokeColor=#3A5431;align=left;labelPosition=center;verticalLabelPosition=middle;verticalAlign=top;" vertex="1" parent="1">
                    <mxGeometry x="700" y="860" width="120" height="60" as="geometry"/>
                </mxCell>
                <mxCell id="8" value="Roll Points&lt;br&gt;0" style="rounded=0;whiteSpace=wrap;html=1;fillColor=#6d8764;fontColor=#ffffff;strokeColor=#3A5431;align=left;labelPosition=center;verticalLabelPosition=middle;verticalAlign=top;" vertex="1" parent="1">
                    <mxGeometry x="420" y="790" width="120" height="60" as="geometry"/>
                </mxCell>
                <mxCell id="9" value="Roll Points:&lt;br&gt;100" style="rounded=0;whiteSpace=wrap;html=1;fillColor=#6d8764;fontColor=#ffffff;strokeColor=#3A5431;align=left;labelPosition=center;verticalLabelPosition=middle;verticalAlign=top;" vertex="1" parent="1">
                    <mxGeometry x="700" y="790" width="120" height="60" as="geometry"/>
                </mxCell>
                <mxCell id="10" value="Turn Ended&lt;br&gt;&amp;nbsp;- reason: bank" style="rounded=0;whiteSpace=wrap;html=1;fillColor=#e3c800;fontColor=#000000;strokeColor=#B09500;align=left;labelPosition=center;verticalLabelPosition=middle;verticalAlign=top;" vertex="1" parent="1">
                    <mxGeometry x="1110" y="720" width="120" height="60" as="geometry"/>
                </mxCell>
                <mxCell id="11" value="Roll Points:&lt;br&gt;300" style="rounded=0;whiteSpace=wrap;html=1;fillColor=#6d8764;fontColor=#ffffff;strokeColor=#3A5431;align=left;labelPosition=center;verticalLabelPosition=middle;verticalAlign=top;" vertex="1" parent="1">
                    <mxGeometry x="980" y="790" width="120" height="60" as="geometry"/>
                </mxCell>
                <mxCell id="12" value="Score&lt;br&gt;player 1: 300&lt;br&gt;player 2: 0" style="rounded=0;whiteSpace=wrap;html=1;fillColor=#6d8764;fontColor=#ffffff;strokeColor=#3A5431;align=left;labelPosition=center;verticalLabelPosition=middle;verticalAlign=top;" vertex="1" parent="1">
                    <mxGeometry x="1110" y="860" width="120" height="60" as="geometry"/>
                </mxCell>
                <mxCell id="13" value="Dice Rolled:&lt;br&gt;&amp;nbsp; 2, 2, 3, 4, 6, 6" style="rounded=0;whiteSpace=wrap;html=1;fillColor=#e3c800;fontColor=#000000;strokeColor=#B09500;align=left;labelPosition=center;verticalLabelPosition=middle;verticalAlign=top;" vertex="1" parent="1">
                    <mxGeometry x="1240" y="720" width="120" height="60" as="geometry"/>
                </mxCell>
                <mxCell id="14" value="Turn Ended&lt;br&gt;&amp;nbsp;- reason: farkle" style="rounded=0;whiteSpace=wrap;html=1;fillColor=#e3c800;fontColor=#000000;strokeColor=#B09500;align=left;labelPosition=center;verticalLabelPosition=middle;verticalAlign=top;" vertex="1" parent="1">
                    <mxGeometry x="1370" y="720" width="120" height="60" as="geometry"/>
                </mxCell>
                <mxCell id="15" value="game started&lt;br&gt;&amp;nbsp;- no of players: 2" style="rounded=0;whiteSpace=wrap;html=1;fillColor=#e3c800;fontColor=#000000;strokeColor=#B09500;align=left;labelPosition=center;verticalLabelPosition=middle;verticalAlign=top;" vertex="1" parent="1">
                    <mxGeometry x="290" y="720" width="120" height="60" as="geometry"/>
                </mxCell>
                <mxCell id="16" value="Current Player&lt;br&gt;1" style="rounded=0;whiteSpace=wrap;html=1;fillColor=#6d8764;fontColor=#ffffff;strokeColor=#3A5431;align=left;labelPosition=center;verticalLabelPosition=middle;verticalAlign=top;" vertex="1" parent="1">
                    <mxGeometry x="1110" y="940" width="120" height="60" as="geometry"/>
                </mxCell>
                <mxCell id="17" value="" style="whiteSpace=wrap;html=1;aspect=fixed;rounded=0;strokeColor=#666666;fontFamily=Helvetica;fontSize=12;fontColor=#333333;fillColor=#f5f5f5;" vertex="1" parent="1">
                    <mxGeometry x="300" y="390" width="290" height="290" as="geometry"/>
                </mxCell>
                <mxCell id="18" value="start game" style="rounded=0;whiteSpace=wrap;html=1;strokeColor=#666666;fontFamily=Helvetica;fontSize=12;fontColor=#333333;fillColor=#f5f5f5;" vertex="1" parent="1">
                    <mxGeometry x="320" y="410" width="120" height="30" as="geometry"/>
                </mxCell>
                <mxCell id="19" value="2" style="rounded=0;whiteSpace=wrap;html=1;strokeColor=#666666;fontFamily=Helvetica;fontSize=12;fontColor=#333333;fillColor=#f5f5f5;" vertex="1" parent="1">
                    <mxGeometry x="390" y="440" width="50" height="20" as="geometry"/>
                </mxCell>
                <mxCell id="20" value="no players:" style="rounded=0;whiteSpace=wrap;html=1;strokeColor=#666666;fontFamily=Helvetica;fontSize=12;fontColor=#333333;fillColor=#f5f5f5;" vertex="1" parent="1">
                    <mxGeometry x="320" y="440" width="70" height="20" as="geometry"/>
                </mxCell>
                <mxCell id="21" value="reset" style="rounded=0;whiteSpace=wrap;html=1;strokeColor=#666666;fontFamily=Helvetica;fontSize=12;fontColor=#333333;fillColor=#f5f5f5;" vertex="1" parent="1">
                    <mxGeometry x="450" y="410" width="90" height="30" as="geometry"/>
                </mxCell>
                <mxCell id="22" value="" style="rounded=0;whiteSpace=wrap;html=1;strokeColor=#666666;fontFamily=Helvetica;fontSize=12;fontColor=#333333;fillColor=#f5f5f5;" vertex="1" parent="1">
                    <mxGeometry x="320" y="480" width="140" height="130" as="geometry"/>
                </mxCell>
                <mxCell id="23" value="score&lt;br style=&quot;font-size: 8px;&quot;&gt;player 1: 0&lt;br style=&quot;font-size: 8px;&quot;&gt;&lt;div style=&quot;font-size: 8px;&quot;&gt;&lt;span style=&quot;background-color: initial; font-size: 8px;&quot;&gt;player 2: 0&lt;/span&gt;&lt;/div&gt;" style="rounded=0;whiteSpace=wrap;html=1;strokeColor=#666666;fontFamily=Helvetica;fontSize=8;fontColor=#333333;fillColor=#f5f5f5;align=left;verticalAlign=top;" vertex="1" parent="1">
                    <mxGeometry x="480" y="480" width="60" height="110" as="geometry"/>
                </mxCell>
                <mxCell id="24" value="1" style="whiteSpace=wrap;html=1;aspect=fixed;rounded=0;strokeColor=#666666;fontFamily=Helvetica;fontSize=8;fontColor=#333333;fillColor=#f5f5f5;" vertex="1" parent="1">
                    <mxGeometry x="330" y="520" width="15" height="15" as="geometry"/>
                </mxCell>
                <mxCell id="41" value="" style="edgeStyle=none;html=1;fontFamily=Helvetica;fontSize=8;fontColor=#333333;" edge="1" parent="1" source="25" target="20">
                    <mxGeometry relative="1" as="geometry"/>
                </mxCell>
                <mxCell id="25" value="1" style="whiteSpace=wrap;html=1;aspect=fixed;rounded=0;strokeColor=#666666;fontFamily=Helvetica;fontSize=8;fontColor=#333333;fillColor=#f5f5f5;" vertex="1" parent="1">
                    <mxGeometry x="349" y="520" width="15" height="15" as="geometry"/>
                </mxCell>
                <mxCell id="26" value="1" style="whiteSpace=wrap;html=1;aspect=fixed;rounded=0;strokeColor=#666666;fontFamily=Helvetica;fontSize=8;fontColor=#333333;fillColor=#f5f5f5;" vertex="1" parent="1">
                    <mxGeometry x="368" y="520" width="15" height="15" as="geometry"/>
                </mxCell>
                <mxCell id="27" value="1" style="whiteSpace=wrap;html=1;aspect=fixed;rounded=0;strokeColor=#666666;fontFamily=Helvetica;fontSize=8;fontColor=#333333;fillColor=#f5f5f5;" vertex="1" parent="1">
                    <mxGeometry x="387" y="520" width="15" height="15" as="geometry"/>
                </mxCell>
                <mxCell id="28" value="1" style="whiteSpace=wrap;html=1;aspect=fixed;rounded=0;strokeColor=#666666;fontFamily=Helvetica;fontSize=8;fontColor=#333333;fillColor=#f5f5f5;" vertex="1" parent="1">
                    <mxGeometry x="406" y="520" width="15" height="15" as="geometry"/>
                </mxCell>
                <mxCell id="29" value="1" style="whiteSpace=wrap;html=1;aspect=fixed;rounded=0;strokeColor=#666666;fontFamily=Helvetica;fontSize=8;fontColor=#333333;fillColor=#f5f5f5;" vertex="1" parent="1">
                    <mxGeometry x="425" y="520" width="15" height="15" as="geometry"/>
                </mxCell>
                <mxCell id="31" value="1" style="whiteSpace=wrap;html=1;aspect=fixed;rounded=0;strokeColor=#666666;fontFamily=Helvetica;fontSize=8;fontColor=#333333;fillColor=#f5f5f5;" vertex="1" parent="1">
                    <mxGeometry x="330" y="570" width="15" height="15" as="geometry"/>
                </mxCell>
                <mxCell id="32" value="1" style="whiteSpace=wrap;html=1;aspect=fixed;rounded=0;strokeColor=#666666;fontFamily=Helvetica;fontSize=8;fontColor=#333333;fillColor=#f5f5f5;" vertex="1" parent="1">
                    <mxGeometry x="349" y="570" width="15" height="15" as="geometry"/>
                </mxCell>
                <mxCell id="33" value="1" style="whiteSpace=wrap;html=1;aspect=fixed;rounded=0;strokeColor=#666666;fontFamily=Helvetica;fontSize=8;fontColor=#333333;fillColor=#f5f5f5;" vertex="1" parent="1">
                    <mxGeometry x="368" y="570" width="15" height="15" as="geometry"/>
                </mxCell>
                <mxCell id="34" value="1" style="whiteSpace=wrap;html=1;aspect=fixed;rounded=0;strokeColor=#666666;fontFamily=Helvetica;fontSize=8;fontColor=#333333;fillColor=#f5f5f5;" vertex="1" parent="1">
                    <mxGeometry x="387" y="570" width="15" height="15" as="geometry"/>
                </mxCell>
                <mxCell id="35" value="1" style="whiteSpace=wrap;html=1;aspect=fixed;rounded=0;strokeColor=#666666;fontFamily=Helvetica;fontSize=8;fontColor=#333333;fillColor=#f5f5f5;" vertex="1" parent="1">
                    <mxGeometry x="406" y="570" width="15" height="15" as="geometry"/>
                </mxCell>
                <mxCell id="36" value="1" style="whiteSpace=wrap;html=1;aspect=fixed;rounded=0;strokeColor=#666666;fontFamily=Helvetica;fontSize=8;fontColor=#333333;fillColor=#f5f5f5;" vertex="1" parent="1">
                    <mxGeometry x="425" y="570" width="15" height="15" as="geometry"/>
                </mxCell>
                <mxCell id="37" value="Roll:" style="rounded=0;whiteSpace=wrap;html=1;strokeColor=none;fontFamily=Helvetica;fontSize=8;fontColor=#333333;fillColor=#f5f5f5;" vertex="1" parent="1">
                    <mxGeometry x="330" y="490" width="50" height="20" as="geometry"/>
                </mxCell>
                <mxCell id="38" value="Picked:" style="rounded=0;whiteSpace=wrap;html=1;strokeColor=none;fontFamily=Helvetica;fontSize=8;fontColor=#333333;fillColor=#f5f5f5;" vertex="1" parent="1">
                    <mxGeometry x="330" y="540" width="50" height="20" as="geometry"/>
                </mxCell>
                <mxCell id="39" value="Roll" style="rounded=0;whiteSpace=wrap;html=1;strokeColor=#666666;fontFamily=Helvetica;fontSize=8;fontColor=#333333;fillColor=#f5f5f5;" vertex="1" parent="1">
                    <mxGeometry x="320" y="620" width="50" height="20" as="geometry"/>
                </mxCell>
                <mxCell id="40" value="Bank" style="rounded=0;whiteSpace=wrap;html=1;strokeColor=#666666;fontFamily=Helvetica;fontSize=8;fontColor=#333333;fillColor=#f5f5f5;" vertex="1" parent="1">
                    <mxGeometry x="380" y="620" width="50" height="20" as="geometry"/>
                </mxCell>
            </root>
        </mxGraphModel>
    </diagram>
</mxfile>